/* XPM */
static char *_205647a00034f42b3b9a2b3698e035239PMvWLuhmCNoQJv[] = {
/* columns rows colors chars-per-pixel */
"64 64 228 2 ",
"   c #1D0000",
".  c #270000",
"X  c #2A0100",
"o  c #330900",
"O  c #521705",
"+  c #6A1E0C",
"@  c #651C0B",
"#  c #641C10",
"$  c #573011",
"%  c #69200D",
"&  c #62210F",
"*  c #783817",
"=  c #663015",
"-  c #733B25",
";  c #5B3C27",
":  c #6A4618",
">  c #7A4C12",
",  c #764B15",
"<  c #774912",
"1  c #6F4B29",
"2  c #6C4126",
"3  c #744927",
"4  c #744929",
"5  c #7B5926",
"6  c #7C4A38",
"7  c #755230",
"8  c #556F3F",
"9  c #5A6D3F",
"0  c #7F662E",
"q  c #77632D",
"w  c #7D6634",
"e  c #7E5345",
"r  c #764E42",
"t  c #7D6742",
"y  c #843E24",
"u  c #88460A",
"i  c #884B16",
"p  c #944F16",
"a  c #934E19",
"s  c #8F5317",
"d  c #89541B",
"f  c #965119",
"g  c #945216",
"h  c #95492E",
"j  c #955623",
"k  c #874D3C",
"l  c #934B31",
"z  c #924730",
"x  c #85543C",
"c  c #96583C",
"v  c #8A4E27",
"b  c #84632D",
"n  c #866838",
"m  c #9C673D",
"M  c #9D683E",
"N  c #916B3F",
"B  c #85783A",
"V  c #A57B3F",
"C  c #AA793F",
"Z  c #BE7735",
"A  c #BD7838",
"S  c #A26127",
"D  c #A2583B",
"F  c #C27A39",
"G  c #C27A35",
"H  c #824E43",
"J  c #845344",
"K  c #855648",
"L  c #9A5E44",
"P  c #9A5E53",
"I  c #8E6B43",
"U  c #896747",
"Y  c #906A44",
"T  c #9B614C",
"R  c #996648",
"E  c #927B47",
"W  c #937C48",
"Q  c #906958",
"!  c #956551",
"~  c #927752",
"^  c #957954",
"/  c #9F7452",
"(  c #8A7850",
")  c #A46B45",
"_  c #A66E49",
"`  c #A46348",
"'  c #A9744A",
"]  c #B3744B",
"[  c #BA764F",
"{  c #AC7653",
"}  c #A97953",
"|  c #A87857",
" . c #B67854",
".. c #A86D51",
"X. c #A97B62",
"o. c #BA7E73",
"O. c #788349",
"+. c #968954",
"@. c #AB824D",
"#. c #A3815A",
"$. c #A7885A",
"%. c #A18657",
"&. c #B9885B",
"*. c #B0955B",
"=. c #9D8575",
"-. c #AA8865",
";. c #B68966",
":. c #B5876D",
">. c #B8866C",
",. c #B5896A",
"<. c #BB8D6B",
"1. c #B78764",
"2. c #A78F75",
"3. c #B38A76",
"4. c #BD9474",
"5. c #BA9F74",
"6. c #BD987C",
"7. c #B9977A",
"8. c #B7A76E",
"9. c #C38E5C",
"0. c #C18956",
"q. c #C2935F",
"w. c #DC9B5E",
"e. c #DB965C",
"r. c #C38049",
"t. c #C58D65",
"y. c #C39460",
"u. c #CA9969",
"i. c #D89B65",
"p. c #C49978",
"a. c #E19D69",
"s. c #D2A167",
"d. c #D3A069",
"f. c #DCA56B",
"g. c #CDB86D",
"h. c #C8BA6C",
"j. c #CAA673",
"k. c #CAA77F",
"l. c #C6A97F",
"z. c #C9A87F",
"x. c #DEAB74",
"c. c #D4A776",
"v. c #C9B974",
"b. c #D6BE7B",
"n. c #DABC7D",
"m. c #D8B17A",
"M. c #E1AB74",
"N. c #EBB87F",
"B. c #E6B57B",
"V. c #E7A068",
"C. c #C4AF5E",
"Z. c #D4CF69",
"A. c #CEC47C",
"S. c #D2C47D",
"D. c #DECF7E",
"F. c #D8C279",
"G. c #E2C57F",
"H. c #B09987",
"J. c #CAA682",
"K. c #C4AC88",
"L. c #C8AA89",
"P. c #C3A281",
"I. c #CFBF8B",
"U. c #CAB88A",
"Y. c #D3BE87",
"T. c #DFBD8F",
"R. c #D5BC88",
"E. c #C1A492",
"W. c #C3AA94",
"Q. c #C7B796",
"!. c #C3B996",
"~. c #C3B898",
"^. c #CEB899",
"/. c #D3B99A",
"(. c #D4B799",
"). c #DBA489",
"_. c #E4BB8E",
"`. c #EFBB89",
"'. c #E9B883",
"]. c #F3BC85",
"[. c #F2BA8A",
"{. c #FCBC96",
"}. c #FCBD99",
"|. c #F4B899",
" X c #ECBC94",
".X c #D5BBA5",
"XX c #FFBCAB",
"oX c #FFB5A2",
"OX c #FFBEB2",
"+X c #EEB9A7",
"@X c #CFC087",
"#X c #CDC18B",
"$X c #D2C383",
"%X c #D1C18D",
"&X c #D8C78A",
"*X c #D9C392",
"=X c #EEC186",
"-X c #E2C68B",
";X c #ECC48B",
":X c #E2C88C",
">X c #E6C989",
",X c #F1C086",
"<X c #F6C48D",
"1X c #ECC792",
"2X c #E2CB94",
"3X c #FFC29C",
"4X c #FFC99D",
"5X c #F5C594",
"6X c #E9D29E",
"7X c #E9D08E",
"8X c #D3C4B4",
"9X c #DEC3B0",
"0X c #E7C8AE",
"qX c #FFC5A3",
"wX c #FFC9A5",
"eX c #F9D1A7",
"rX c #E5CBB0",
"tX c #E9C9B1",
"yX c #E8CDB9",
"uX c #FFC3B3",
"iX c #FFCAB4",
"pX c #EDD0B9",
"aX c #EAD3A1",
"sX c #E5D6C2",
"dX c #EED3C2",
"fX c #EED2C6",
"gX c #DFE6C6",
"hX c #E1E4C5",
/* pixels */
"Z.D.#.Q E.2.5.6X%XE M 4Xy.1X%.^ tX/.@XS.g.n.I } w.Z g x.:X0 _ {.s.N.] 3Xq.> =X`.l XX% c <.4.J . 8XsX3.>.4 _.' B.O.8 gX~.j.@.l.K.",
"Z.D.| Q E.2.5.6X%XE M 4Xy.1X$.^ tX/.@XS.g.n.I } w.Z p M.:X0 _ {.d.N.] 3X9.> =X`.l XX% R <.4.J . 8XsX3.>.4 _.C F.O.8 gX~.j.@.z.K.",
"Z.D.#.Q E.2.5.6X%XE M 4Xq.1X%.^ tX/.@XS.g.n.I } w.Z p x.:X0 _ {.i.N.] 3X&.> =X`.l XX+ L <.4.J . 8XsX3.>.4 _.C n.O.8 gX~.j.@.z.L.",
"Z.&X#.Q E.2.5.6X%XE M 4Xq.1X%.^ tX/.@XS.g.n.I } w.Z p x.:X0 _ {.d.'.] 3Xq.> =X`.l XX@ R <.4.J . 8XsX3.>.4 _.C n.O.8 gX#Xj.@.k.L.",
"Z.D.#.Q E.2.5.6X%XE M 4Xy.1X$.^ tX(.@XS.g.b.I } w.Z p x.-Xb _ {.s.N.] 3X9.> =X].l XX% L <.4.J . 8XsX3.>.4  XC n.O.8 gX!.j.@.k.L.",
"Z.D.#.Q E.2.5.6X%XE m 4Xq.1X$.^ tX(.@XA.g.b.I } w.Z p x.:X0 _ {.s.N.] 3X9.> =X`.l XX% L <.4.J . 8XsX3.>.4 T.C n.O.8 gX!.j.@.k.L.",
"Z.D.%.Q E.2.5.6X%XW m 4Xq.1X%.^ tX(.$XS.g.n.I } w.Z g M.:X0 _ {.s.N.] 3X&.> =X`.l XX% L <.4.J . 8XsX2.>.4 _.' n.O.8 hX!.j.@.k.J.",
"Z.D.#.Q E.2.5.6X%XW m 4Xy.;X$.^ tX(.I.F.g.n.N } w.Z g M.:X0 _ {.s.N.] 3Xq.> =X`.l XX% L <.4.J . 8XsX3.>.4 T.C n.O.8 hX!.j.@.k.K.",
"Z.D.#.Q E.2.5.6X%XW m 4Xy.1X%.^ tX/.@XS.g.b.I } w.Z p x.:X0 _ {.d.N.] 3X9.> =X`.l XX+ L <.4.J . 8XsX3.>.4 _.C n.O.8 gX!.j.@.l.K.",
"Z.D.#.Q E.2.5.6X%XW M 4Xy.1X%.^ tX/.@XS.g.n.I } w.Z p x.:X0 _ {.d.N.] 3X9.> =X`.l qX% L <.4.J . 8XsX3.>.4 _.C n.O.8 gX!.j.@.c.K.",
"Z.D.#.Q E.2.5.6X%XW m 4Xy.1X$.^ tX/.@XS.g.n.N } w.Z p M.:X0 _ {.d.N.] 3Xq.> =X`.l XX% L <.4.J . 8XsX3.>.4 _.C n.O.8 gX!.j.@.z.K.",
"Z.D.#.Q E.2.5.6X%XW m 4Xy.1X%.^ tX/.@XA.g.n.Y } i.Z p x.:X0 _ {.d.N.] 3X&.> =X`.l XX% L <.4.J . 8XsX3.>.4 _.C n.O.8 gX!.j.@.k.L.",
"Z.D.| Q E.2.5.6X%XE M 4Xy.1X$.^ tX(.I.S.g.n.I } w.Z g M.:X0 _ {.d.N.] 3X9.> =X`.l XX% L <.4.J . 8XsX3.3.3 _.' n.O.8 gX!.j.@.c.K.",
"Z.D.#.Q E.2.5.6X%XE M 4Xy.1X#.^ tX/.@XS.g.b.I } w.G p x.:X0 _ {.d.N.] 3X9.> =X`.l XX% L <.4.J . 8XsX3.>.3 _.C n.O.8 gX!.j.@.J.K.",
"Z.D.#.Q E.2.5.6X%XW m 4Xq.1X%.^ tX/.@XS.g.n.I } w.Z p M.:X0 _ }.d.N.] 3X9.> =X`.v XX% L <.4.J . 8XsX3.>.3 _.C n.O.8 gX!.j.@.k.L.",
"Z.&X#.Q E.2.5.6X%XW m 4Xy.;X$.^ rX/.@XF.g.b.I } w.Z p x.:Xb _ }.s.N.] 3X9.> =X`.l XX% L <.4.J . 8XsX3.>.3 _.C b.O.8 gX!.j.@.k.L.",
"Z.D.#.Q E.2.5.6X%XW M 4Xq.1X$.~ rX^.%XS.h.S.I | e.F s x.1Xb ) }.s.G.] 3X9.> =X`.h XX+ L <.4.J . 8XsX3.,.3 _.C n.O.9 gX!.j.@.L.L.",
"Z.D.#.Q E.2.5.6X%XW M 4Xq.1X$.~ rX^.Y.$Xh.A.I | w.F s c.>Xb ) 3Xs.B.] 3X9.> =X].h XX+ R <.4.e . 8XsX3.:.3 _.C n.O.8 gX~.j.@.J.L.",
"Z.D.%.Q E.2.5.6X%XE M 4Xq.1X$.~ rX^.#XS.h.S.I { w.G s f.>Xb _ 3Xs.B.] 3X9.> `.].h XX% c <.5.J . 8XsX3.,.3 _.C n.O.8 hX!.k.@.J.L.",
"Z.D.#.Q E.2.5.6X%XE M 4Xq.1X$.~ rX%X%XS.h.S.I { w.G s x.;Xb ) }.s.B.] 3X9.> ].[.l XX% R ;.4.J . 8XsX3.,.3 _.C n.O.8 hX!.j.@.J.L.",
"Z.D.#.Q E.2.5.6X%XW M 4Xq.1X$.~ rX/.R.S.h.b.I { w.F f x.;Xb ) {.s.N.] 4X9.i `.[.h OX+ L <.4.H . 8XpX3.>.3 _.C n.O.8 hX~.j.@.J.L.",
"Z.&X| Q E.2.5.6X%XW M 4Xq.1X$.~ rX/.R.S.h.A.I { w.G g x.>Xb ) 3Xs.N.] 3X9.> ].].l XX+ L ,.p.J . 8XsX3.,.3 _.C n.O.8 hX~.j.} J.L.",
"Z.D.#.Q E.2.5.6X%XE M 4Xq.1X$.~ rX(.R.F.h.b.I { e.G s x.>Xb ) 3Xs.N.] 3X9.i [.[.z XX+ ` >.p.K X 8XsX3.,.3 _.C n.O.8 hX~.j.@.J.L.",
"Z.D.#.Q E.2.5.6X%XE M 4Xq.1X$.~ rX/.R.S.h.F.Y { e.F s x.;Xb ) 3Xi.N.] 3Xt.> [.[.z OX+ L >.p.J . 8XsX3.,.3 _.C b.O.8 hX~.j.@.J.W.",
"Z.D.%.Q E.2.5.6X#XW R 4X<.1X$.^ 0X/.*Xg.A.F.I { V.Z i x.>X5 ..3Xf.B.[ }.t.< ,X[.z XX# ` >.4.H X 8XsX3.>.3 _.C n.O.8 gX~.z.@.J.L.",
"Z.D.%.Q E.2.5.6X%XW M 4Xy.1X$.W rX/.T.b.h.S.Y { e.F j c.>XN  .|.d.N.] qXt.i '.'.z OX@ T 1.p.H X 8XpX3.>.3 _.C n.O.8 gX~.k.@.L.L.",
"Z.D.#.Q E.2.5.6XY.+.M 4Xy.1X$.~ 0X^.R.&Xv.v.U ..i.A s m.1X5 R |.f.'.) }.&., ;X5Xl uX# P :.p.H . 8XpX:.>.3 _.C n.O.8 gX~.k.@.J.L.",
"Z.D.#.Q E.2.5.6XI.E M 4Xy.1X$.~ yX.XI.v.S.$XU | a.Z i m.6Xn R wXd.'.[ qXu.< _.`.l uX# L 1.p.J . 8XsX3.>.3 _.C n.O.8 gX~.j.@.J.L.",
"Z.D.#.Q E.2.5.6X@XE M 4Xq.1X$.~ yX.X5.+.v.@XU X.i.[ j c.*Xn Y ).u.'.] 3X&.> =X;Xk XX# R >.p.J . 8XsX3.,.3 _.C b.O.8 hX~.j.@.J.L.",
"Z.D.#.Q E.2.5.6X%XE M 4Xq.1X$.~ .XE.%.+.h.$XU / i.S i c.*Xq 3 | y.<X) qX' 5 m.c.z uX& R :.H.K . 8XhX3.:.3 _.C b.O.8 gX~.j.@.J.W.",
"Z.D.#.Q E.2.5.6X%XW M 4Xq.1X$.~ fXH.^ *.8.2X( X.i.u = R.aXU 7 <.u.,X{ qXy., *.d - uX& T 1.6.J . 8XsX3.1.3 _.' n.O.8 hX~.j.@.J.L.",
"Z.D.| Q E.2.5.6X%XE M 4Xq.1X$.~ fX2.1 +.w 8.t X.i.i < d.*XU x | u.u.L t.p.5 R.N - uX& T -.7.e . 8XsX3.>.3 ;XC R.O.8 hX~.j.@.J.L.",
"Z.D.#.Q E.2.5.6X%XW m 4Xy.1X$.~ sXH.+.8.( w ; 6 i h , j./.t Q ).x $ = P 7 $ %.: ; P O J 7.6.r . 8XhX3.3.3 _.' n.O.9 gX!.j.@.z.K.",
"Z.&X#.Q E.2.5.6X%XW m 4Xy.1X$.~ sXH.t +.q q $ 2 ' a O } U.w k P | t.H +X- $ W ( O o.& ; U 7.e   8XsX3.>.4 _.C F.O.8 gX!.j.@.k.K.",
"Z.D.| Q E.2.5.6X%XW m 4Xy.1X$.~ sX.X!.A.8.v.Q X.i.r.j ).*XU | |.k. Xt.uXu.: aX_.c uX- x X.P.K . 8XsX3.>.3 _.C n.O.8 hX!.j.@.k.L.",
"Z.D.#.Q E.2.5.6X%XW m qXy.1X%.^ .X~.#X$XA.&XU / e.] f m.*Xw _ qXu.'.` |.p.: 6X'.c XX# L ,.7.6   8XsX3.>.3 _.C n.O.8 hX!.j.@.k.L.",
"Z.D.%.Q E.2.5.6X%XW M 4Xq.1X%.^ fX.X@XA.g.b.n | i.G s f.7X0 / 3Xc.[.] qX9., B.5Xy uX% R 1.p.J o 8XsX3.>.3 _.C n.O.8 gX!.j.@.c.K.",
"Z.D.#.Q E.2.5.6X%XE m 4Xq.1X$.^ 0XW.@Xv.g.F.N &.e.G f M.D.5 m <Xi.M.[ {.9.u B.5Xh uX+ c &.p.6 . 8XsX3.>.4 _.C n.O.8 gX!.j.@.J.K.",
"Z.D.#.Q E.2.5.6X%XW M 4Xy.1X$.~ tX^.&XA.h.F.b V w.G g f.7Xn ' [.f.N.A qX0.d N.'.D oX@ c <.p.H o 8XsX3.>.4 _.' n.O.8 hX!.j.@.k.K.",
"Z.D.#.Q E.2.5.6X%XW M 4Xy.1X$.W tXU.&XA.C.D.N ' w.G g f.>Xb ) 3Xi.B.] 3Xq.< <X`.y oXy ` 1.p.H X 8XsX3.3.4 _.C n.O.8 hXQ.j.@.k.L.",
"Z.D.#.Q E.2.5.6X%XW M 4Xq.1X$.~ tXT.Y.S.g.n.N ] e.G p M.;Xb _ {.i.N.] 3X9.> =X`.l OX# T ,.p.H . 8XsX3.>.3 _.' n.O.8 gX!.j.@.l.K.",
"Z.D.#.Q E.2.5.6X%XW M 4Xq.1X$.~ tX(.Y.S.g.n.I | i.F a M.>X0 _ }.d.N.] 3Xq., =X`.l OX# T :.6.e . 8XsX3.>.3 _.C n.O.8 gX!.j.@.c.K.",
"Z.D.#.Q E.2.5.6X%XE M 4Xq.1X$.~ tX(.I.$Xg.n.Y | i.F a x.-Xb ..}.s.'.} 3X1., =X`.l OX# T ,.6.e . 8XsX3.>.3 _.C n.O.8 gX!.j.@.z.K.",
"Z.D.#.Q E.2.5.6X%XE M 4Xq.1X$.^ tX.XI.$Xg.R.Y | i.A a x.-Xw ..|.j.'.{ 3Xt., ;X Xl OX# T <.H.e . 8XsX3.>.4 _.C n.O.8 gX!.j.@.k.L.",
"Z.D.#.Q E.2.5.6X%XW M 4Xq.1X$.^ tX/.@X$Xg.n.Y { i.Z g x.2Xw _ }.d.N.] 3X&.> =X[.l OX@ L ,.p.J . 8XsX7.:.4 _.' n.O.8 gX!.j.@.c.K.",
"Z.&X#.Q E.2.5.6X%XW M 4Xq.1X$.~ tX/.#X$Xg.R.Y | i.Z g x.:Xb _ }.d.N.] 3Xy.> ].[.z OX+ ` 1.6.6 . 8XsX3.:.3 _.C F.O.8 gX!.j.@.J.K.",
"Z.D.| Q E.2.5.6X%XE M 4Xq.1X$.~ tX/.@XA.g.b.Y | w.Z s x.:X0 _ <Xs.N.] 3X9.u ,X].h XX+ ` 1.p.x . 8XsX3.:.3 _.C n.O.8 hX!.j.@.k.L.",
"Z.D.#.Q E.2.5.6X%XE M 4Xq.1X$.~ rX/.@XA.g.S.I | w.Z s x.:X0 _ {.s.N.] 3X9.i ].].h XX@ D &.p.k . 8XsX3.:.3 _.C b.O.8 hX!.j.@.z.L.",
"Z.D.%.Q E.2.5.6X#X+.M 4Xq.1X$.~ tX/.@XS.h.n.I } w.Z g M.:X0 _ {.s.N.] 3X9.> =X`.h XX% L <.t.J . 8XsX3.:.1 _.V b.O.9 hXQ.j.@.J.K.",
"Z.D.#.Q E.2.5.6XI.E M 4Xq.1X$.~ tX/.@XS.g.b.I } w.Z g M.&X0 _ {.i.N.] 3Xq.> =X`.l XX% L <.p.J . 8XfX3.:.1 T.V n.O.9 hXQ.j.@.l.K.",
"Z.D.#.Q E.2.5.6XI.W M 4Xq.1X$.~ tX/.@XS.g.n.Y } w.Z f M.:X0 _ {.s.N.] 3X9.> =X`.l XX% L <.7.J . 8XsX3.:.1 T.' b.O.9 hXQ.j.@.l.K.",
"Z.D.#.Q E.2.5.6X@XW M 4Xq.1X$.~ tX/.@XS.g.n.Y } w.G g M.:Xb _ {.s.N.] 3X9.> =X].l XX+ L <.4.J . 8XsX3.:.3 &XV n.O.9 hXQ.j.@.l.K.",
"Z.D.| Q E.2.5.6X%XW m 4Xq.1X$.^ tX(.I.S.g.b.N } w.Z f M.-X0 _ {.d.N.] 3X9.> =X'.l XX+ L <.4.J . 8XfX3.:.1 T.V n.O.9 hXQ.j.@.l.K.",
"Z.D.#.Q E.2.5.6X%XW M 4Xq.1X$.~ tX/.@XA.g.b.I } w.Z f M.-X0 _ {.d.N.] 3Xq.> =X`.l qX% L <.4.J . 8XfX3.:.1 T.V n.O.9 hXQ.j.@.l.K.",
"Z.D.#.Q E.2.5.6X%XE M 4Xq.1X$.~ tX(.$XS.g.n.I } w.Z g x.&X0 _ {.d.N.] 3Xq.> =X`.l XX% L <.4.J . 8XsX3.:.1 T.' b.t 8 hXQ.j.@.l.K.",
"Z.D.#.Q E.2.5.6X%XW M 4Xq.1X$.~ tX(.I.F.g.n.I } w.Z p M.>X0 _ {.d.N.] 3X&.> =X`.l XX% L ,.p.J . 8XfX3.>.1 T.V b.O.9 hXQ.j.@.l.K.",
"Z.D.#.Q E.2.5.6X%XW M 4Xq.1X$.~ tX/.@XS.g.b.I } w.Z p M.:X0 _ {.d.N.] 3X9.> =X`.l XX% R 1.4.J . 8XsX3.:.1 T.V n.O.9 hX!.j.@.l.K.",
"Z.D.| Q E.2.5.6X%XW M 4Xq.;X$.^ tX/.@XS.g.n.I } w.Z p x.:X0 ) {.d.N.] 3X9.> =X`.l XX% L <.4.J . 8XsX3.:.1 _.V n.O.9 hX!.j.@.l.K.",
"Z.D.#.Q E.2.5.6X%XW M 4Xq.1X$.~ tX/.@XS.g.n.N } w.Z g x.:X0 _ {.d.N.] 3X9.> =X`.l XX@ L <.4.J . 8XfX3.:.1 T.V b.O.9 hX^.j.@.l.K.",
"Z.D.#.Q E.2.5.6X%XE M 4Xq.1X$.~ tX/.@XA.g.n.Y } w.Z g x.:X0 _ {.d.N.] 3X&.> =X`.l XX% R <.4.J . 8XsX3.:.1 T.V R.O.9 hX^.j.@.l.K.",
"Z.D.#.Q E.2.5.6X%XW M 4Xq.1X$.^ tX(.I.S.g.n.I } w.Z g x.:X0 _ {.s.N.] 3Xq.> =X].l XX% L >.4.K . 8XsX3.:.1 T.V F.O.9 hXQ.j.@.l.K.",
"Z.D.#.Q E.2.5.6X%XE M 4Xq.1X$.~ rX(.Y.A.g.n.I } w.Z p M.:X0 _ 3Xs.N.] 3Xq.> =X`.l XX% L <.4.K . 9XfX3.:.1 T.V n.O.9 hXQ.j.@.l.K.",
"Z.D.#.Q E.2.5.6X%XE M 4Xq.1X$.~ tX(.Y.A.g.n.I } w.Z p x.:X0 _ {.d.N.] 3X9.> =X`.l XX% L <.4.K . .XsX3.:.1 T.C F.O.9 hXQ.j.@.z.K.",
"Z.&X#.Q E.2.5.6X%XW M 4Xq.1X$.~ tX(.$XS.g.n.I } w.Z p M.:Xb _ {.d.N.] 3X&.> =X`.l XX% L <.4.K X 8XsX3.:.1 _.V n.O.9 hX!.j.@.l.K."
};
