/* XPM */
static char *_e3a0d0553a942c2c1fca32d2fccdd81kFh8itjsEyRyOm0p[] = {
/* columns rows colors chars-per-pixel */
"64 64 256 2 ",
"   c #030201",
".  c #0C0100",
"X  c #0C0A02",
"o  c #04000A",
"O  c #140200",
"+  c #1C0100",
"@  c #1D0B00",
"#  c #150A05",
"$  c #0C1809",
"%  c #1C1400",
"&  c #171408",
"*  c #191716",
"=  c #081215",
"-  c #220200",
";  c #2C0200",
":  c #240A03",
">  c #290D05",
",  c #340200",
"<  c #360A02",
"1  c #221A0B",
"2  c #241705",
"3  c #3A1804",
"4  c #241818",
"5  c #341B16",
"6  c #220813",
"7  c #162518",
"8  c #2A2405",
"9  c #342B07",
"0  c #362717",
"q  c #2F2F11",
"w  c #2A2827",
"e  c #372824",
"r  c #2C3728",
"t  c #3D3828",
"y  c #3A3838",
"u  c #303233",
"i  c #371F2F",
"p  c #440501",
"a  c #441500",
"s  c #591805",
"d  c #5C0A0E",
"f  c #651901",
"g  c #760F09",
"h  c #432605",
"j  c #592703",
"k  c #572919",
"l  c #49381B",
"z  c #513213",
"x  c #693705",
"c  c #763203",
"v  c #6C2C0D",
"b  c #521E25",
"n  c #701D28",
"m  c #472927",
"M  c #473929",
"N  c #4B3932",
"B  c #55322E",
"V  c #632527",
"C  c #75232C",
"Z  c #6C332F",
"A  c #3D4600",
"S  c #224C36",
"D  c #57440A",
"F  c #6B5209",
"G  c #7C680D",
"H  c #484438",
"J  c #58473A",
"K  c #544425",
"L  c #744328",
"P  c #6C4733",
"I  c #746535",
"U  c #54384D",
"Y  c #3F504A",
"T  c #474847",
"R  c #595555",
"E  c #594F4E",
"W  c #6B4C49",
"Q  c #79594C",
"!  c #6D544D",
"~  c #736E57",
"^  c #6E5865",
"/  c #686968",
"(  c #756E6B",
")  c #787566",
"_  c #797979",
"`  c #4C5D6C",
"'  c #8F170E",
"]  c #B11600",
"[  c #962503",
"{  c #8A2C10",
"}  c #B12A01",
"|  c #94362B",
" . c #891E28",
".. c #D01200",
"X. c #C63B00",
"o. c #D23700",
"O. c #CF2700",
"+. c #8D4C05",
"@. c #A14E05",
"#. c #A75600",
"$. c #AA520F",
"%. c #8D7818",
"&. c #8E5531",
"*. c #917034",
"=. c #B6732B",
"-. c #AF6631",
";. c #BB611B",
":. c #D27C12",
">. c #D47931",
",. c #DC601C",
"<. c #905449",
"1. c #8F6F56",
"2. c #B36E53",
"3. c #857A76",
"4. c #9A7677",
"5. c #8E7067",
"6. c #B46F6B",
"7. c #C57669",
"8. c #7A9055",
"9. c #71996B",
"0. c #74927A",
"q. c #AE841C",
"w. c #BE8737",
"e. c #A78E34",
"r. c #BDBE3F",
"t. c #90902B",
"y. c #C78A19",
"u. c #F8AE13",
"i. c #CE8F2B",
"p. c #F79A3A",
"a. c #E78F2B",
"s. c #FFBC38",
"d. c #F2B036",
"f. c #EB9A29",
"g. c #C8C93D",
"h. c #FDC638",
"j. c #FFCC32",
"k. c #86985C",
"l. c #968954",
"z. c #AF9C48",
"x. c #8FA557",
"c. c #BBB34D",
"v. c #888479",
"b. c #92887D",
"n. c #8D906D",
"m. c #B28F74",
"M. c #97A572",
"N. c #B1A771",
"B. c #CD9A51",
"V. c #E4934C",
"C. c #CAB14D",
"Z. c #F9BB59",
"A. c #EBB04C",
"S. c #DA9969",
"D. c #C69C6C",
"F. c #D9A46D",
"G. c #CCB16A",
"H. c #EBBA63",
"J. c #F5AB76",
"K. c #F6B478",
"L. c #E8AD6F",
"P. c #B4C677",
"I. c #B8D557",
"U. c #C8C645",
"Y. c #C8D446",
"T. c #CECA56",
"R. c #FFC348",
"E. c #E5CD54",
"W. c #FBC356",
"Q. c #EBD052",
"!. c #FBE05D",
"~. c #C9D974",
"^. c #D7C66E",
"/. c #F2D16E",
"(. c #D6E56C",
"). c #F4E169",
"_. c #787A84",
"`. c #747D97",
"'. c #6A738F",
"]. c #727FA1",
"[. c #977C8D",
"{. c #798882",
"}. c #748A99",
"|. c #7794AC",
" X c #75A2A0",
".X c #898785",
"XX c #998C88",
"oX c #9B9998",
"OX c #8D918F",
"+X c #A59888",
"@X c #A59896",
"#X c #B7938D",
"$X c #99A88C",
"%X c #AAA898",
"&X c #ACAD96",
"*X c #98B0AF",
"=X c #A7A7A6",
"-X c #B7AAA6",
";X c #B3B2AF",
":X c #B9B8B5",
">X c #ADB6AF",
",X c #8389AD",
"<X c #CA9891",
"1X c #CBB38D",
"2X c #E7B686",
"3X c #F4B684",
"4X c #E9AC8E",
"5X c #CCB8A5",
"6X c #CFBAB5",
"7X c #F2B4AA",
"8X c #BED0B1",
"9X c #ACCE8E",
"0X c #D4C686",
"qX c #F5CD8C",
"wX c #C6C5BB",
"eX c #D0C4BF",
"rX c #C2DCB5",
"tX c #F5CCB0",
"yX c #F4E6B7",
"uX c #EFE8B1",
"iX c #EAF398",
"pX c #B1B8C0",
"aX c #BBC4C5",
"sX c #B5CCDE",
"dX c #ACC7E2",
"fX c #B4D1E7",
"gX c #A7DAE6",
"hX c #CBC9C9",
"jX c #D8D6CC",
"kX c #D7D8D6",
"lX c #CFD0CB",
"zX c #F4D8C9",
"xX c #E2DBD6",
"cX c #F0D3CC",
"vX c #D4E3CE",
"bX c #EBE2DD",
"nX c #E8E6DD",
"mX c #F6EACA",
"MX c #C1DCE5",
"NX c #FBDCE2",
"BX c #D8E8E8",
"VX c #E5E5E5",
"CX c #EAE9E8",
"ZX c #F6E7E6",
"AX c #F4F2ED",
"SX c #FBF8EA",
"DX c #EEF7F8",
"FX c #F4F5F4",
"GX c #FDF5F3",
"HX c #F4FAF3",
"JX c #FDFCF5",
"KX c #F4F6FD",
"LX c #FDF5FC",
"PX c #F6FDFC",
"IX c #FEFFFE",
"UX c #F4F2F0",
/* pixels */
"IXIXIXIXIXPXIXPXIXIXIXIXIXIXIXLXJXIXIXIXIXIXIXIXIXLXLXIXIXIXIXIXIXIXIXIXIXIXIXIXIXIXIXIXIXIXIXIXIXIXIXIXIXIXIXIXIXIXIXIXIXIXIXIX",
"IXIXIXIXIXJXIXJXIXIXIXIXIXIXIXIXIXIXIXIXIXIXIXIXIXIXJXIXIXIXIXIXIXIXIXIXIXIXIXIXIXIXIXIXIXIXIXIXIXIXIXIXIXIXIXIXIXIXIXIXIXIXIXIX",
"IXIXIXIXJXIXIXIXIXIXIXIXIXIXIXIXIXIXJXJXJXJXJXJXPXIXIXIXJXPXIXLXIXIXIXIXIXIXIXIXIXIXIXIXIXIXIXIXIXIXIXIXIXIXIXIXIXIXIXIXIXIXIXIX",
"IXIXIXIXIXIXIXIXIXIXIXIXIXIXJXIXIXIXJXJXJXJXJXIXPXJXIXIXPXPXJXIXIXIXIXIXIXIXIXIXIXIXIXIXIXIXIXIXIXIXIXIXIXIXIXIXIXIXIXIXIXIXIXIX",
"IXIXIXIXIXIXIXIXIXIXIXIXIXIXIXPXIXIXIXIXIXIXIXPXIXIXIXIXPXPXIXIXIXIXIXIXIXIXIXIXIXIXIXIXIXIXIXIXIXIXIXIXIXIXIXIXIXIXIXIXIXIXIXIX",
"IXIXIXIXIXIXIXIXIXIXIXIXIXIXIXIXPXJXJXIXIXIXIXIXIXIXIXIXHXPXIXIXIXIXIXIXIXIXIXIXIXIXIXIXIXIXIXIXIXIXIXIXIXIXIXIXIXIXIXIXIXIXIXIX",
"IXIXIXIXIXIXIXIXIXIXIXIXPXIXPXIXPXIXIXIXIXIXIXIXIXIXIXJXPXIXIXIXIXIXIXIXIXIXIXIXIXIXIXIXIXIXIXIXIXIXIXIXIXIXIXIXIXIXIXIXIXIXIXIX",
"IXIXIXIXIXIXIXIXIXIXPXIXIXIXJXPXPXIXIXLXIXIXIXIXIXLXLXIXIXPXIXIXIXIXIXIXIXIXIXIXIXIXIXIXIXIXIXIXIXIXIXIXIXIXIXIXIXIXIXIXIXIXIXIX",
"IXIXIXIXIXIXIXIXPXIXIXIXIXIXJXJXIXIXLXPXIXPXPXIXIXGXLXIXPXPXLXIXIXIXIXIXIXIXIXIXIXIXIXIXIXIXIXIXIXIXIXIXIXIXIXIXIXIXIXIXIXIXIXIX",
"IXIXIXIXIXIXIXIXIXIXPXIXkX@XxXIX.Xu hXIXIXPXIXHXHXIXLXLXIXIXIXIXIXIXIXIXIXIXIXIXIXIXIXIXIXIXIXIXIXIXIXIXIXIXIXIXIXIXIXIXIXIXIXIX",
"IXIXIXLXIXIXIXIXIXPXIXCX# . 6 3.*   $ >XVXIXPXHXJXJXIXIXIXPXIXIXIXIXIXIXIXIXIXIXIXIXIXIXIXIXIXIXIXIXIXIXIXIXIXIXIXIXIXIXIXIXIXIX",
"IXIXIXIXIXIXIXIXPXPXIX;X  O - m #       % K &XJXJXDXIXIXIXIXIXLXIXIXIXIXIXIXIXIXIXIXIXIXIXIXIXIXIXIXIXIXIXIXIXIXIXIXIXIXIXIXIXIX",
"IXIXIXIXIXIXIXIXIXFXIX3.. 5 ! 6X*     9 e.F - 0 hXIXJXIXKXIXJXJXIXIXIXIXIXIXIXIXIXIXIXIXIXIXIXIXIXIXIXIXIXIXIXIXIXIXIXIXIXIXIXIX",
"IXIXIXIXIXIXJXIXIXJXIXGXN - Z 4.    + *.).!.S.s . _ HXJXIXLXSXJXIXIXIXIXIXIXIXIXIXIXIXIXIXIXIXIXIXIXIXIXIXIXIXIXIXIXIXIXIXIXIXIX",
"IXIXIXIXIXIXIXIXIXPXGXJX^ - W #Xu # 9 i.Q.d.;. .m o R IXLXLXJXHXIXIXIXIXIXIXIXIXIXIXIXIXIXIXIXIXIXIXIXIXIXIXIXIXIXIXIXIXIXIXIXIX",
"IXIXIXIXIXIXIXPXIXJXIX6X- 7X6.W hXoXx e.Q.i.] ' U _.  R IXIXHXJXJXIXIXIXIXIXIXIXIXIXIXIXIXIXIXIXIXIXIXIXIXIXIXIXIXIXIXIXIXIXIXIX",
"IXJXJXIXIXIXIXIXIXHXVX> <.cX4XN aXoXZ e.!.y.[ n '.|.oX$ E IXJXHXIXLXIXIXIXIXIXIXPXPXLXIXPXPXIXIXIXIXLXIXIXIXIXLXIXIXIXIXIXIXIXIX",
"IXIXIXIXIXIXIXIXHXJX8X+ 6.2.zX+XpX=XJ c.E.i.[ C }.gXBXwX: M IXJXHXIXKXIXIXJXIXIXIXIXLXJXPXPXFXIXIXIXIXIXIXJXIXIXIXIXIXIXIXIXIXJX",
"IXIXIXIXIXIXIXIXJXIXnX6  .7X<X. `.>X~ G.Q.i.[ n `.MXkXqXL.3 M HXLXIXIXIXJXSXrX=X( W ! 5.;XPXIXIXJXJXIXIXPXIXIXFXIXIXIXLXIXIXIXIX",
"IXIXIXIXIXIXIXJXIXIXCXO | cX#X4.6XOX8.I.Q.i.[ n }.gXcX4X/.B.< 5 +XhXcX&X~ S $ $ O - k k O 8 b.GXIXJXIXIXIXIXPXIXIXIXIXIXIXJXIXIX",
"IXIXJXJXLXIXIXJXLXLX=X+ 7X&.9 F 1.5Xk.P.E.q.[ n `.dXcXJ.W.#.} &.- > > 2 r S {.rX^.F v 2.z.I % A AXJXHXIXJXIXPXIXIXIXIXIXIXIXIXIX",
"IXIXJXJXJXJXPXPXKXLX^ 4 m.x z.G.*.tXM.P.).:.g C ].dXNXJ.R.y.#.J.v &.B.G.yXrX X9.T.H.x 3 q./.G.8 M SXIXHXJXPXDXIXIXIXIXIXIXIXIXIX",
"IXIXJXJXIXIXIXPXIXLX4 # j c.U.C.I ! 8 &XE.q.{ V ].fXcX3Xh.u.@.K.&.a =.B.B.iXvX0.k.(.q.G Y.c.2X5X. XXIXJXIXJXIXDXIXIXIXIXIXIXIXIX",
"IXIXIXJXIXIXPXPXIX:XO O D ^.T.t.. t l 9 /.=.' V ].dXNX3Xh.u.@.Z.B.f c i.a.H.bX*Xk.~.r.g.U.T.2X7X4.* GXIXIXIXKXIXIXIXIXIXIXIXIXIX",
"IXJXJXJXLXIXPXPXIXR . . @ I l.O ( IXbX+ -.;. .n ].dXNX3Xh.s.@.V.H.F s $.f.A.mX>Xk.~.T.r.^.2X7X4X5.. hXLXGXIXIXIXIXIXIXIXIXIXIXIX",
"JXJXJXIXIXIXIXPXFXw     .   . R LXIXIX4.p | ' C `.dXZX2XZ.s.X.,.!.%.s { a.a.mX%Xx.~.Y.U.L.7X6.V m O 5XGXIXIXIXIXIXIXIXIXIXIXIXIX",
"IXIXIXIXIXIXIXJXIXT   . X o OXLXIXIXIXLXm < V m }.fXNX4XR.R.X.;.Q.t.j c a.p.mX$Xx.(.g.g.qX7.s k B . @XLXLXIXIXIXIXIXIXIXIXIXIXIX",
"IXIXIXIXIXIXIXIXJXkX* o   U LXIXLXIXPXIXwX  U / *XVXcXJ.R.Z.o.X.A.r.j f :.A.mX8X9.~.Y.C.3X| s B ^ O -XGXGXIXLXIXIXIXIXIXIXIXIXPX",
"IXIXJXJXIXIXIXJXJXIXBX_.oXLXIXDXIXKXPXHXvX& aXOXjXmX7XJ.h.h.O.o.E.c.v f :.d.uXvX0.9XT.E.S.d Z cXNX. ( IXIXJXIXIXIXIXIXIXIXPXIXIX",
"IXIXIXJXIXIXIXLXIXIXKXIXLXHXIXIXPXDXPXPXlX$ 8XvXzXtX3XZ.j.s.O.O.A.C.v f i.B.uXvX9.N.(.W.2.a 7XGX-X  y IXIXPXIXIXIXIXIXIXIXIXJXPX",
"IXIXJXIXIXIXIXIXHXJXPXHXIXIXIXPXIXIXIXPXVX# #XtXtXJ.Z.h.j.f.....A.C.j c i.A.yXrXx.~.G.qXL +XBXBX0.    kXIXIXIXIXIXIXIXIXIXIXIXIX",
"IXIXIXIXIXIXIXIXIXIXHXJXJXJXHXIXJXIXIXKXIX4 <.tXJ.Z.R.s.d.X.....i.B.f { p./.uX$Xx.~.0Xm.1.xX*X Xu     / IXKXIXIXIXIXIXIXIXIXIXPX",
"IXIXIXIXIXIXIXIXIXIXIXIXIXIXIXIXIXIXIXKXLX+X- L.W.Z.p.,.O.O.' g =.i.f >.V.qXrX9.I.(.N.8 E oX{.}.* w     lXIXIXIXIXIXIXIXIXIXIXIX",
"IXIXIXIXIXIXIXIXIXIXIXIXIXIXIXIXIXPXKXIXIXJXM a >.>.} ] '  .Z B -.&.@.V.F.uXM.9X(.t.8   t &X$X8.* %X    w FXPXIXIXIXIXIXIXIXIXIX",
"IXIXIXIXIXIXIXIXIXIXIXIXIXIXIXIXIXJXIXJXJXAX) & Q P C b U ,X|.|.P &.V.L.yX$XM.M.9 % 3.@X% N.c.D H IX*   o / IXPXIXIXIXIXIXIXIXIX",
"IXIXIXIXIXIXIXIXIXIXIXIXIXIXIXIXJXHXJXGXIXIXT N #X<X[.i '.|.}.,X5 - < h S 7 % # 8 2 IXbXX c.qXa n.IX_ o     hXJXIXIXIXIXIXIXIXIX",
"IXIXIXIXIXIXIXIXIXIXIXIXIXIXIXIXIXPXIXIXFXIXN K 4XS.Z o + m.D.N.@ XX-XXX/   t.G.l.2 JXLX9 L F., +XIXkXo     _ IXIXIXIXIXIXIXIXIX",
"IXIXIXIXIXIXIXIXIXIXIXIXIXIXIXIXIXIXLXIXIXIXv.O c c + XXl z =.-.@ DXPXIXJX1 *.qXm.+ bXGXE 3 Z , 5XIXIXy     R PXIXIXIXIXIXIXIXIX",
"IXIXIXIXIXIXIXIXIXIXIXIXIXIXIXIXIXPXIXIXGXIXwX. 2.<.+ xXn.. V , m JXJXDXKX.X< 2.&.; eXIXH 3 Z + 6XIXIX_   o R IXJXIXIXIXIXIXIXIX",
"IXIXIXIXIXIXIXIXIXIXIXIXIXIXIXIXIXIXIXLXIXJXKX4 m.<X# SXhXX <XV W IXDXIXIXZX, f { , b.JX0 > k O aXIXLXoX  T :XIXIXIXIXIXIXIXIXIX",
"IXIXIXIXIXIXIXIXIXIXIXIXIXIXIXIXPXPXIXIXIXIXIXe h L + CXkXO 7.d 4.LXIXIXIXJX1.+ F > J IX% 1.&X+ 6XIXIXE * IXIXJXIXIXIXIXIXIXIXIX",
"IXIXIXIXIXIXIXIXIXIXIXIXIXIXIXIXIXJXIXIXLXIXIX0 &.F.O kXlXO &., 4.IXIXPXJXJXv.8 0XI 0 JX@ n.N.% kXIXPXoXkXIXFXIXIXIXIXIXIXIXIXIX",
"IXIXIXIXIXIXIXIXIXIXIXIXIXIXIXIXIXIXIXIXIXIXPXq %./.# wX%X% iX9 ~ PXFXIXJXIX{.7 >X$ {.IXw R R w JXIXIXIXIXIXIXIXIXIXIXIXIXIXIXIX",
"IXIXIXIXIXIXIXIXIXIXIXIXIXIXIXIXIXIXIXIXIXPXPXH F G.O JXv.9 iXA / PXPXIXHXIXu T ` = DXIXu [.T R IXIXIXJXKXIXIXIXIXIXIXIXIXIXIXIX",
"IXIXIXIXIXIXIXIXIXIXIXIXIXIXIXIXIXIXIXPXPXPXIX( X 9 1 JX.X2 1X2 n.IXPXKXPXlXX %X& oXIXJXM ~ t 3.IXUXIXFXIXIXIXIXIXIXIXIXIXIXIXIX",
"IXIXIXIXIXIXIXIXIXIXIXIXIXIXIXIXLXLXIXPXPXPXIX.X4 E 4 JX;X  H O wXIXKXIXIXN l 1.: FXIXJXh k 2 oXJXPXIXIXIXIXFXIXIXIXIXIXIXIXIXIX",
"IXIXIXIXIXIXIXIXIXIXIXIXIXIXIXIXIXIXIXIXIXPXIX@Xi [.4 IX6X= / = CXJXJXIX-XO &.- XXIXIXkX: 1.: %XIXLXIXJXIXIXIXIXIXIXIXIXIXIXIXIX",
"IXIXIXIXIXIXIXIXIXIXIXIXIXIXIXIXIXJXIXIXPXIXJX@X6 ^ 6 GXlX* OX* AXHXIXGX: Q P < SXKXIXjX+ 5.# :XIXKXIXIXIXIXIXIXIXIXIXIXIXIXIXIX",
"IXIXIXIXIXIXIXIXIXIXIXIXIXIXIXIXJXIXIXIXIXFXSX3.5 5.. xXjXX B : xXJXCXw O T O %XJXAXIX.X. 2 * UXIXIXIXIXIXIXIXIXIXIXIXIXIXIXIXIX",
"IXIXIXIXIXIXIXIXIXIXIXIXIXIXIXIXJXJXIXPXIXJXwX. J 1.@ JXXX8 m.O eXIXH y AXN T JXGXIXCX  oX.X4 IXIXIXIXIXIXIXIXIXIXIXIXIXIXIXIXIX",
"IXIXIXIXIXIXIXIXIXIXIXIXIXIXIXIXJXIXIXIXPXkX$ ) XXO @XJXv.* ! > SXGX* T /   .XIXIXGXhX  FXoX& IXIXIXIXIXIXIXIXIXIXIXIXIXIXIXIXIX",
"IXIXIXIXIXIXIXIXIXIXIXIXIXIXIXIXIXLXLXIXIX.Xo nX+X. bXIXv.% H e IXIX:XE R ;XIXLXFXIXIXw * X _ IXIXIXIXIXIXIXIXIXIXIXIXIXIXIXIXIX",
"IXIXIXIXIXIXIXIXIXIXIXIXIXIXIXIXIXIXIXIXIXkXu   & ( HXJXu 0.nXX CXHXIXIXKXGXIXIXJXIXIXVXv.;XIXFXIXIXIXIXIXIXIXIXIXIXIXIXIXIXIXIX",
"IXIXIXIXIXIXIXIXIXIXIXIXIXIXIXIXIXIXLXKXIXIXAXnXAXLXIXKXT w / X AXIXIXFXIXIXPXIXIXIXIXIXIXIXIXIXIXIXIXIXIXIXIXIXIXIXIXIXIXIXIXIX",
"IXIXIXIXIXIXIXIXIXIXIXIXIXIXIXIXIXIXIXIXIXPXIXHXIXIXPXIXkXT y >XLXKXIXIXIXIXIXIXIXJXIXIXIXIXKXIXIXIXIXIXIXIXIXIXIXIXIXIXIXIXIXIX",
"IXIXIXIXIXIXIXIXIXIXIXIXIXIXIXIXLXIXIXIXIXIXIXIXIXIXIXFXIXPXIXIXIXIXIXJXIXIXIXIXIXIXIXIXIXIXIXIXIXIXIXIXIXIXIXIXIXIXIXIXIXIXIXIX",
"IXIXIXIXIXIXIXIXIXIXIXIXIXIXIXIXIXIXIXIXIXIXIXIXIXIXIXIXPXIXIXPXIXIXIXIXIXIXIXIXIXIXIXIXIXIXIXIXIXIXIXIXIXIXIXIXIXIXIXIXIXIXIXIX",
"IXIXIXIXIXIXIXIXIXIXIXIXIXIXIXIXIXIXIXIXIXIXIXIXIXIXIXIXLXIXIXIXIXIXIXIXIXIXIXIXIXIXIXIXIXIXIXIXIXIXIXIXIXIXIXIXIXIXIXIXIXIXIXIX",
"IXIXIXIXIXIXIXIXIXIXIXIXIXIXIXIXIXIXIXJXIXIXIXIXIXIXIXJXLXIXIXIXIXIXIXIXIXIXIXIXIXIXIXIXIXIXIXIXIXIXIXIXIXIXIXIXIXIXIXIXIXIXIXIX",
"IXIXIXIXIXIXIXIXIXIXIXIXIXIXIXIXIXJXIXIXJXIXIXIXIXIXIXIXJXIXIXIXIXIXIXIXIXIXIXIXIXIXIXIXIXIXIXIXIXIXIXIXIXIXIXIXIXIXIXIXIXIXIXIX",
"IXIXIXIXIXIXIXIXIXIXIXIXIXIXIXIXIXIXIXJXIXIXIXIXPXIXIXIXIXLXIXIXIXIXIXIXIXIXIXIXIXIXIXIXIXIXIXIXIXIXIXIXIXIXIXIXIXIXIXIXIXIXIXIX",
"IXIXIXIXIXIXIXIXIXIXIXIXIXIXIXIXIXIXIXJXJXIXIXIXPXPXIXIXJXIXIXIXIXIXIXIXIXIXIXIXIXIXIXIXIXIXIXIXIXIXIXIXIXIXIXIXIXIXIXIXIXIXIXIX",
"IXIXIXIXIXIXIXIXIXIXIXIXIXIXIXIXIXIXIXJXIXLXIXIXPXPXIXJXIXLXIXPXIXIXIXIXIXIXIXIXIXIXIXIXIXIXIXIXIXIXIXIXIXIXIXIXIXIXIXIXIXIXIXIX",
"IXIXIXIXIXIXIXIXIXIXIXIXIXIXIXIXIXIXIXIXJXIXIXIXPXPXIXIXIXIXPXPXIXIXIXIXIXIXIXIXIXIXIXIXIXIXIXIXIXIXIXIXIXIXIXIXIXIXIXIXIXIXIXIX"
};
